<?xml version="1.0" encoding="UTF-8"?>
<svg xmlns="http://www.w3.org/2000/svg" width="271" height="271" viewBox="0 0 271 271">
  <path fill="#faaf43" d="M135.5 0L0 135.5 135.5 271 271 135.5 135.5 0ZM135.5 209.82l-16.56-16.56 48.91-48.91-54.66-54.66 21.32-21.32 71.22 71.22-70.23 70.23ZM37.27 111.59l18.61-18.61 51.23 51.23-18.61 18.61-51.23-51.23ZM137.41 127.27l17.08 17.08-42.23 42.23-17.08-17.08 42.23-42.23ZM212.41 132.91l-71.22-71.22 21.32-21.32 71.22 71.22-21.32 21.32ZM155.83 33.69l-56 56 30.9 30.9-16.94 16.94-51.23-51.23L135.5 13.36l20.33 20.33ZM30.59 118.27l98.23 98.23-16.99 16.99-98.23-98.23 16.99-16.99ZM118.51 240.16l121.9-121.9 16.99 16.99-121.9 121.9-16.99-16.99Z"/>
</svg>