<?xml version="1.0" encoding="UTF-8"?><svg id="Layer_1" xmlns="http://www.w3.org/2000/svg" width="600" height="150" viewBox="0 100 1200 325"><defs><style>.cls-1{fill:#faaf43;}.cls-2{fill:#231f20;font-family:JosefinSans-Bold, 'Josefin Sans';font-size:81.29px;font-weight:700;letter-spacing:.45em;}</style></defs><g id="Logo_2" transform="translate(0, -40)"><g id="Text"><text class="cls-2" transform="translate(465.29 342.57)"><tspan x="0" y="0">QUBIK</tspan></text></g><path id="Logo" class="cls-1" d="M293.06,179.75l-135.25,135.25,135.25,135.25,135.25-135.25-135.25-135.25ZM293.06,389.57l-16.56-16.56,48.91-48.91-54.66-54.66,21.32-21.32,71.22,71.22-70.23,70.23ZM194.82,291.34l18.61-18.61,51.23,51.23-18.61,18.61-51.23-51.23ZM294.97,307.01l17.08,17.08-42.23,42.23-17.08-17.08,42.23-42.23ZM369.97,312.65l-71.22-71.22,21.32-21.32,71.22,71.22-21.32,21.32ZM313.39,213.44l-56,56,30.9,30.9-16.94,16.94-51.23-51.23,72.94-72.94,20.33,20.33ZM188.15,298.01l98.23,98.23-16.99,16.99-98.23-98.23,16.99-16.99ZM276.07,419.91l121.9-121.9,16.99,16.99-121.9,121.9-16.99-16.99Z"/></g></svg>